<?xml version="1.0" encoding="UTF-8" standalone="no"?>
<!-- Created with Inkscape (http://www.inkscape.org/) -->
<svg id="svg3013" xmlns:rdf="http://www.w3.org/1999/02/22-rdf-syntax-ns#" xmlns="http://www.w3.org/2000/svg" viewBox="0 0 40 40" version="1.1" xmlns:cc="http://creativecommons.org/ns#" xmlns:dc="http://purl.org/dc/elements/1.1/">
 <metadata id="metadata3019">
  <rdf:RDF>
   <cc:Work rdf:about="">
    <dc:format>image/svg+xml</dc:format>
    <dc:type rdf:resource="http://purl.org/dc/dcmitype/StillImage"/>
    <dc:title/>
   </cc:Work>
  </rdf:RDF>
 </metadata>
 <g id="g3041" transform="scale(0.30075188,0.24539877)">
  <path id="path3057" fill="#fefefe" d="M0,81.5,0,0,66.5,0,133,0,133,81.5,133,163,66.5,163,0,163,0,81.5z"/>
  <path id="path3055" fill="#ededed" d="m58.973,151.75c-4.8943-3.314-6.8842-7.4152-5.7011-11.75,1.3513-4.951,4.248-8.6513,7.4672-9.5389,3.5359-0.97487,10.199-1.1704,9.6511-0.28312-0.23047,0.37291,0.375,0.94672,1.3455,1.2751,2.4244,0.82044,5.2344,4.9126,5.4895,7.994,0.1162,1.4041,0.67563,2.5597,1.2432,2.5682,0.69213,0.0103,0.69836,0.25722,0.0189,0.75-0.55714,0.40408-1.4631,2.0708-2.0132,3.7038-1.262,3.74-6.784,7.53-10.975,7.53-1.7623,0-4.6996-1.0125-6.5272-2.25zm-21.573-18.15c-1.87-1.87-3.4-4.3184-3.4-5.441,0-1.1225-0.42227-2.302-0.93838-2.6209-1.3344-0.82468,2.9665-8.4998,5.8104-10.369,2.4481-1.609,12.372-3.3733,11.557-2.0546-0.52679,0.85236,3.4626,2.327,4.2271,1.5624,0.27811-0.27811-0.02331-1.494-0.66983-2.7021-1.0597-1.98-1.0166-7.0015,0.09413-10.975,0.47313-1.6925,4.2477-4.6433,7.7668-6.0717,1.5063-0.61143,3.6796-0.59416,6.0651,0.04819,11.034,2.9711,12.54,17.429,2.3825,22.866-3.3682,1.8026-8.7372,1.3846-11.651-0.90704-1.4439-1.1358-3.1477-1.7421-3.7863-1.3474-0.81674,0.50477-0.63668,1.1011,0.60705,2.0106,1.0424,0.76221,1.9712,3.0944,2.2629,5.6816,0.928,8.23-4.194,13.73-12.777,13.73-3.386,0-4.776-0.63-7.55-3.4zm41.473,1.7163c-5.4322-3.3713-7.4034-10.508-4.4516-16.116,1.645-3.1254,5.1409-6.3048,5.9942-5.4515,0.322,0.32,0.585,0.13,0.585-0.43,0-0.66432,1.8217-0.73383,5.25-0.20031,9.3197,1.4503,13.527,9.6141,9.2331,17.917-2.8578,5.5264-11.158,7.667-16.61,4.2836zm-51.23-22.55c0.261-0.42-0.008-0.77-0.599-0.77-1.847,0-5.036-6.34-5.04-10.02-0.004-3.936,4.185-10.98,6.532-10.98,0.80517,0,1.4638-0.3375,1.4637-0.75-0.000137-0.4125,2.2114-0.75,4.9146-0.75s4.7952,0.12055,4.649,0.26788c-0.1462,0.14734,1.1873,1.8086,2.9634,3.6918,5.2848,5.6036,5.216,11.731-0.19249,17.139-3.3172,3.3172-3.8446,3.4994-9.3411,3.227-3.2039-0.15878-5.6115-0.63461-5.3503-1.0574zm60.23-1.4524c-5.9689-3.7044-7.5819-11.484-3.6047-17.386,2.6788-3.975,6.8529-5.4394,12.911-4.5295,10.557,1.5857,12.465,17.112,2.7224,22.15-3.6707,1.8982-8.7512,1.799-12.028-0.23482zm-41.306-19.266c-10.593-6.9827-4.7511-22.414,7.8453-20.725,10.815,1.4503,13.275,15.662,3.6029,20.815-4.4441,2.3679-7.7593,2.3419-11.448-0.08977zm25.326,0.44944c-3.503-1.904-5.893-5.764-5.893-9.517,0-13.728,18.493-16.377,22.335-3.2,1.233,4.2285,1.1795,4.9227-0.61244,7.9599-3.4012,5.7646-10.211,7.8112-15.829,4.7574zm21.149-10.348c-4.653-4.427-5.595-9.488-2.727-14.655,0.6106-1.1,1.0034-2.3709,0.87294-2.8243-0.13048-0.45338,0.17293-0.57084,0.67424-0.26101,0.50131,0.30982,1.4577-0.09482,2.1253-0.89921,1.946-2.3448,7.2608-2.8565,11.457-1.1031,2.0723,0.86588,4.2396,1.2828,4.8162,0.92646,0.57655-0.35633,0.75614-0.17518,0.39908,0.40256-0.35707,0.57774,0.0206,2.3348,0.83933,3.9045,3.246,6.2238,0.89,13.992-5.1063,16.838-5.3964,2.5607-8.8425,1.9596-13.351-2.329zm-70.012,1.566c-3.852-1.949-7.28-7.686-6.705-11.221,0.821-5.05,1.093-5.673,3.615-8.273,1.638-1.689,3.904-2.681,6.899-3.018,12.325-1.389,18.747,12.197,9.71,20.541-3.868,3.572-8.904,4.306-13.519,1.971zm22.868-17.001c-2.2694-1.5227-3.8438-3.6791-4.7405-6.4929-1.2271-3.8505-1.1569-4.5967,0.81686-8.6739,1.1877-2.4535,3.036-4.7391,4.1072-5.0791,1.0712-0.33999,1.7425-0.95006,1.4918-1.3557-0.25071-0.40565,2.3207-0.41017,5.7142-0.01004,5.1083,0.60232,6.5602,1.2148,8.4372,3.5595,5.3848,6.7264,3.669,15.009-3.9226,18.934-3.9156,2.0248-8.0255,1.7202-11.904-0.88231zm28.521,1.3111c-1.1449-0.46314-3.2824-2.2691-4.75-4.0133-3.6257-4.3089-3.6623-10.464-0.09348-15.723,1.4162-2.0869,2.7662-3.6819,3-3.5444,0.23377,0.1375,1.4375,0.24311,2.675,0.23469,1.6147-0.01099,1.8732-0.25418,0.91546-0.86126-1.979-1.2544,2.4662-2.2141,5.1818-1.1186,1.3406,0.5408,1.5869,0.9071,0.65277,0.97095-0.825,0.05639-0.11183,0.70694,1.5848,1.4457,1.6966,0.73872,3.9994,2.5058,5.1172,3.9269s2.2357,2.3806,2.484,2.1322c1.294-1.294-1.0579,9.6749-2.569,11.981-2.8695,4.3794-9.4409,6.4943-14.199,4.5696zm-23.688-24.687c0.67703-0.27392,2.027-0.2906,3-0.03705,0.97297,0.25354,0.41903,0.47766-1.231,0.49804s-2.4461-0.18706-1.769-0.46099zm0.537-2.299c-5.85-2.106-10.831-5.331-12.142-7.865-1.454-2.808-2.314-11.106-1.593-15.374l0.6804-4.0273,3.9984,0.63936c4.6418,0.74225,9.335,2.9441,12.558,5.8915,2.659,2.431,6.231,13.207,6.231,18.795,0,3.3829-0.29563,3.8899-2.25,3.8586-1.2375-0.01984-4.6045-0.88348-7.4821-1.9192zm16.732-0.368c0-4.2436,2.1195-12.926,4.1215-16.884,2.188-4.3254,8.4142-8.2851,14.589-9.2783,3.9636-0.63754,4.2498-0.52082,4.88,1.99,0.97114,3.8694-0.09919,14.73-1.7097,17.348-1.723,2.801-11.969,7.887-17.631,8.753-4.069,0.622-4.25,0.54-4.25-1.929zm-6.479-10.61c-0.337-1.064-0.655-5.466-0.705-9.784-0.091-7.865,1.259-12.44,4.453-15.092,1.707-1.4164,10.492-1.8744,11.606-0.605,0.441,0.5024,0.537,3.6135,0.213,6.9135-0.566,5.777-0.699,6.012-3.588,6.312-4.123,0.429-5.5,2.652-5.5,8.879,0,5.205-0.057,5.309-2.933,5.309-2.02,0-3.123-0.601-3.546-1.933z"/>
  <path id="path3053" fill="#c1c1c1" d="m58.912,151.72c-5.9708-4.0237-7.3808-9.4854-4.0625-15.736,5.7683-10.865,22.436-6.822,22.436,5.4419,0,5.2335-1.5346,8.1449-5.5995,10.623-4.2213,2.5739-8.634,2.46-12.774-0.32979zm-21.512-18.12c-5.9486-5.9486-4.6216-15.366,2.6988-19.151,5.7799-2.9889,12.003-1.4329,15.669,3.9179,5.815,8.48-0.077,18.63-10.818,18.63-3.386,0-4.776-0.63-7.55-3.4zm41.473,1.7163c-5.5128-3.4214-7.3925-10.477-4.3559-16.349,2.1616-4.1802,6.7911-6.3054,12.366-5.677,14.822,1.6706,12.874,23.804-2.0836,23.683-1.8148-0.0146-4.4819-0.76033-5.9269-1.6571zm-20.584-18.57c-3.679-2.6-5.289-5.6-5.289-9.85,0-8.141,7.8976-14.167,15.318-11.689,6.9863,2.3334,10.407,8.6342,8.1901,15.084-2.8371,8.2525-11.388,11.281-18.219,6.4518zm-30.526-4.32c-5.687-3.08-7.382-11.07-3.636-17.135,2.432-3.935,5.274-5.295,11.07-5.295,3.3393,0,4.6475,0.61572,7.3129,3.4418,5.2807,5.5992,5.2383,11.743-0.11823,17.1-2.8737,2.8737-4.1711,3.4516-7.675,3.4183-2.3192-0.022-5.4485-0.70843-6.9541-1.5254zm60.11-1.1183c-11.248-6.9808-5.3501-23.532,7.8552-22.043,5.2292,0.5894,8.5098,3.3369,10.075,8.438,3.0819,10.042-8.9556,19.175-17.931,13.605zm-41.306-19.256c-10.593-6.9827-4.7511-22.414,7.8453-20.725,10.912,1.4634,13.192,16.31,3.2302,21.037-4.5081,2.1392-7.4848,2.0555-11.075-0.3115zm25.326,0.44944c-10.206-5.547-5.985-21.503,5.689-21.503,8.0351,0,13.93,9.8453,10.065,16.81-3.0246,5.4506-10.347,7.6317-15.754,4.6928zm21.847-9.5657c-6.206-5.116-6.637-12.304-1.085-18.099,3.5032-3.6565,7.827-4.4287,13.064-2.3332,9.3518,3.7418,9.7779,17.659,0.67299,21.979-4.8985,2.3245-8.4888,1.8857-12.653-1.5465zm-69.74,1.357c-5.434-1.987-8.852-9.182-7.011-14.761,3.523-10.676,17.977-11.588,22.56-1.425,2.369,5.254,1.316,9.926-3.115,13.816-3.44,3.02-8.182,3.924-12.434,2.37zm21.898-17.574c-2.2694-1.5227-3.8438-3.6791-4.7405-6.4929-1.2248-3.8433-1.1557-4.5992,0.78812-8.6145,2.5766-5.3226,6.1388-7.0887,12.787-6.3394,3.6008,0.40587,5.2319,1.1953,6.9793,3.3782,4.9307,6.1592,3.6146,14.35-2.9485,18.352-4.2943,2.6183-8.685,2.5217-12.865-0.28303zm27.469,0.36187c-4.576-2.79-6.367-5.908-6.367-11.082,0-3.6447,0.58805-5.1985,2.9436-7.7775,1.6702-1.8286,3.9414-3.2295,5.25-3.2382,1.6455-0.01093,1.924-0.2577,0.97184-0.86126-1.0366-0.65709-0.92498-0.94429,0.5-1.2865,2.5715-0.61746,5.4713,0.13279,4.7878,1.2387-0.315,0.509,0.175,0.925,1.087,0.925s3.189,1.53,5.059,3.4c2.6916,2.6916,3.3992,4.2021,3.3963,7.25-0.0049,5.0483-3.1896,10.115-7.486,11.91-4.5468,1.8998-6.3858,1.8131-10.144-0.47824zm-22.636-23.738c0.67703-0.27392,2.027-0.2906,3-0.03705,0.973,0.254,0.419,0.478-1.231,0.498s-2.446-0.187-1.769-0.461zm0.41146-2.3435c-6.551-2.356-11.959-6.34-12.619-9.295-1.751-7.849-1.236-17.705,0.926-17.705,3.396,0,11.99,3.438,14.503,5.801,3.32,3.123,7.048,13.28,7.048,19.203,0,3.488-0.28602,3.9914-2.25,3.9599-1.2375-0.01984-4.6609-0.90335-7.6076-1.9634zm17.199-3.2524c1.0536-8.9641,4.444-16.582,8.5867-19.294,5.0966-3.336,12.971-5.1898,14.224-3.3487,1.3692,2.0119,0.45079,15.98-1.229,18.693-1.7841,2.8812-11.993,7.9383-17.829,8.832l-4.4056,0.67464,0.65314-5.5572zm-6.592-6.998c-0.256-0.688-0.556-4.912-0.668-9.387-0.223-8.96,1.393-14.476,4.769-16.282,2.567-1.3742,10.873-1.4122,11.326-0.0518,0.189,0.5659,0.114,3.6034-0.166,6.7503-0.489,5.488-0.632,5.734-3.51,6.033-4.123,0.429-5.5,2.652-5.5,8.879,0,5.189-0.066,5.309-2.893,5.309-1.5912,0-3.1023-0.5625-3.3581-1.25z"/>
  <path id="path3051" fill="#989898" d="M60.325,152.54c-5.858-2.55-8.724-9.93-5.942-15.31,2.264-4.38,6.323-7.23,10.302-7.23,13.445,0,17.055,17.45,4.6797,22.621-4.0311,1.6843-5.0018,1.6757-9.0387-0.0803zm-19.825-16.76c-7.3897-4.2669-8.7347-12.375-3.0768-18.549,3.0736-3.3539,3.9309-3.7353,8.395-3.7353,5.6694,0,8.5994,1.9711,10.855,7.3027,2.0171,4.7672,0.80992,9.5657-3.3182,13.19-3.7002,3.2488-9.042,3.9932-12.855,1.7914zm39-0.62604c-4.552-2.7831-5.8288-4.8514-6.1141-9.9041-0.2355-4.1717,0.10629-4.9817,3.5591-8.4345,3.055-3.06,4.563-3.82,7.533-3.82,13.17,0,17.181,16.471,5.4833,22.52-3.8016,1.9659-6.8255,1.8613-10.461-0.36166zm-19-17.112c-3.5208-1.4563-6.6483-5.7324-7.1997-9.844-0.96-7.16,4.634-13.2,12.222-13.2,5.1264,0,11.48,6.1641,11.474,11.132-0.0095,8.5238-8.9978,15.015-16.496,11.914zm-34.265-7.46c-3.37-3.09-3.735-3.92-3.735-8.48,0-4.3788,0.43879-5.4964,3.2692-8.3268,2.831-2.834,3.948-3.273,8.327-3.273,4.5632,0,5.3922,0.36515,8.4808,3.7353,2.743,2.993,3.423,4.557,3.423,7.865,0,3.4668-0.62522,4.7576-3.8824,8.0147-3.257,3.26-4.548,3.89-8.015,3.89-3.3109,0-4.8749-0.68049-7.8676-3.4232zm62.002,0.42627c-4.298-2.63-6.705-7.7-5.838-12.322,0.917-4.891,6.479-9.688,11.232-9.688,12.771,0,17.079,16.953,5.6877,22.385-4.4545,2.1242-7.1211,2.0322-11.081-0.38218zm-39.737-18.413c-6.42-2.834-8.821-9.011-5.897-15.173,1.69-3.562,6.129-6.424,9.964-6.424,3.0492,0,8.0154,3.0227,9.7272,5.9204,3.4072,5.7679,1.2013,12.221-5.3326,15.6-3.4519,1.7851-4.5698,1.7953-8.4614,0.07751zm24.288,0.28475c-3.222-1.216-6.788-6.576-6.788-10.203,0-6.3264,5.0526-11.164,11.669-11.173,4.6767-0.0064,8.3294,2.6629,10.363,7.5736,3.3798,8.1597-6.499,17.104-15.245,13.803zm24.247-8.2473c-4.1713-1.3662-8.0373-6.6791-8.028-11.033,0.01302-6.1321,5.4849-11.499,11.793-11.567,9.585-0.10293,15.19,9.549,10.25,17.651-3.1473,5.1616-8.0642,6.8978-14.015,4.9488zm-74.272-1.2c-1.506-0.817-3.484-2.929-4.396-4.692-5.65-10.927,5.926-22.13,16.319-15.793,3.6062,2.1989,4.9022,4.1943,5.5994,8.6214,1.4565,9.2486-9.1311,16.416-17.523,11.863zm24.686-15.937c-8.3517-4.2558-8.512-16.828-0.26899-21.09,9.5717-4.9497,20.616,4.965,16.502,14.813-2.6547,6.3537-10.289,9.3059-16.233,6.2772zm24.768-1.059c-2.896-2.028-5.217-6.585-5.217-10.241,0-4.1432,3.9416-9.4926,7.9616-10.805,2.168-0.70788,2.8773-1.311,1.9654-1.6711-0.78486-0.30986-0.16296-0.59892,1.382-0.64234s2.5648,0.31626,2.2662,0.7993c-0.29853,0.48304,0.75484,1.1378,2.3408,1.455,4.1122,0.82245,7.5804,6.0797,7.5824,11.494,0.0013,3.7202-0.52215,4.8068-3.7338,7.75-3.039,2.785-4.534,3.422-8.027,3.422-2.361,0-5.295-0.702-6.52-1.561zm-18.217-24.867c-9.163-2.543-14.55-6.647-15.515-11.818-0.334-1.79-0.467-5.954-0.296-9.254,0.277-5.339,0.531-5.97,2.311-5.728,5.0691,0.68841,10.412,2.586,12.849,4.5637,2.9864,2.4232,6.4698,11.339,7.3569,18.829,0.64391,5.4368,0.63026,5.4438-6.7059,3.4078zm14.307-2.6819c1.7894-12.718,5.8493-19.692,12.971-22.282,7.6105-2.7682,9.0184-2.5699,9.8828,1.3918,1.0195,4.6722,0.07635,12.941-1.8069,15.841-1.7339,2.6706-11.946,7.6957-17.76,8.7388l-3.9052,0.70071,0.61775-4.3904zm-6.862-12.408c-0.855-5.701-0.052-14.475,1.609-17.594,1.985-3.7244,4.063-4.8222,9.196-4.8566l4.75-0.0318v3.875c0,2.1312-0.28125,5.2812-0.625,7-0.551,2.755-1.022,3.125-3.981,3.125-3.734,0-4.562,1.591-4.699,9.03-0.068,3.646-0.298,3.97-2.823,3.97-2.494,0-2.813-0.42-3.427-4.518z"/>
  <path id="path3049" fill="#828282" d="M60.48,152.12c-4.524-2.04-6.48-5.35-6.48-10.94,0-8.5545,9.5421-13.922,16.96-9.5399,6.2674,3.7023,7.9408,11.952,3.4959,17.234-2.2972,2.73-3.4711,3.3798-8.4561,4.6802-0.825,0.21522-3.3092-0.42722-5.5204-1.4276zm-19.993-16.23c-3.232-1.58-6.487-7.16-6.487-11.13,0-4.5675,3.8458-9.3522,8.5643-10.655,9.485-2.6189,17.743,6.4327,14.013,15.36-2.511,6.0096-10.432,9.1682-16.09,6.4156zm39.513-0.64c-2.173-1.0856-4.2249-3.2333-5.4118-5.6648-1.7361-3.5564-1.7821-4.2888-0.5-7.9674,1.549-4.45,6.647-8.62,10.526-8.62,4.3399,0,9.1296,3.1049,10.922,7.0801,3.0256,6.7096,0.23424,13.169-6.8512,15.853-3.7616,1.4252-4.5919,1.3597-8.6849-0.68494zm-19.675-17.669c-4.0513-1.812-6.5377-5.6195-6.8888-10.549-0.22629-3.177,0.32443-4.5776,3.0303-7.7067,3.0766-3.5577,3.6734-3.8187,8.5701-3.7478,4.5997,0.06661,5.6198,0.47537,8.0921,3.2423,3.6686,4.1059,4.433,7.4174,2.7394,11.867-2.4752,6.5033-9.475,9.608-15.543,6.894zm-32.544-5.9406c-2.0589-1.383-3.8241-3.7607-4.7368-6.3805-1.305-3.7456-1.2833-4.536,0.21048-7.6685,2.1894-4.5913,5.8664-6.8798,11.24-6.9959,3.5433-0.07653,4.9508,0.45999,7.4256,2.8307,10.094,9.6696-2.5709,25.985-14.14,18.214zm61.34-0.34916c-8.5005-4.1876-8.9449-15.378-0.80767-20.34,3.8458-2.3449,6.8175-2.4563,11.116-0.41656,3.3714,1.5999,6.5731,6.8414,6.5665,10.75-0.006,3.565-3.7613,8.72-7.486,10.276-4.3269,1.8079-5.2229,1.7821-9.3887-0.27009zm-14.235-18.067c-1.4377-0.18108-3.9127-1.6848-5.5-3.3416-7.3837-7.7069-0.15699-20.198,10.319-17.835,4.3733,0.98634,7.1033,3.4571,8.1463,7.3725,2.1489,8.0675-4.2678,14.899-12.965,13.804zm-29.217-2.268c-2.8971-2.2788-4.6928-7.3808-3.9555-11.238,0.26621-1.3926,1.761-3.7554,3.3219-5.2508,5.3859-5.16,14.233-3.165,17.639,3.9776,2.0036,4.2016,1.1738,7.8622-2.6487,11.685-3.6297,3.6297-10.304,4.0139-14.356,0.82638zm-22.268-7.629c-8.46-4.22-8.487-16.685-0.044-20.691,4.266-2.024,5.977-2.045,10.036-0.119,4.011,1.904,6.607,6.207,6.607,10.954s-1.2087,6.8778-5.3554,9.4406c-3.954,2.4437-6.9557,2.5546-11.244,0.4153zm71.481,0.17099c-2.664-1.448-5.882-6.917-5.882-9.997,0-3.1095,2.9967-8.0668,5.9204-9.7939,5.9368-3.507,13.602-1.339,16.445,4.651,2.0016,4.218,2.034,5.7518,0.21362,10.109-2.4345,5.8266-10.668,8.3076-16.697,5.0312zm-46.5-15.978c-6.574-2.765-9.212-10.08-5.926-16.434,1.54-2.978,6.899-6.085,10.495-6.085,2.9793,0,7.6227,2.553,9.4885,5.2168,1.9597,2.7978,2.0125,9.0089,0.10786,12.692-2.3143,4.4754-9.1749,6.708-14.165,4.6098zm24.381-1.084c-1.5056-0.81692-3.4181-2.8016-4.25-4.4103-4.5146-8.7304,2.0952-17.892,12.095-16.765,4.6595,0.52519,6.3699,1.7794,8.5771,6.2896,4.9796,10.175-6.2854,20.386-16.422,14.886zm3.9684-23.091c0.67703-0.27392,2.027-0.2906,3-0.03705,0.97297,0.25354,0.41903,0.47766-1.231,0.49804s-2.4461-0.18706-1.769-0.46099zm-20.461-1.497c-5.915-1.029-12.321-4.087-15.266-7.288-2.139-2.324-2.548-3.857-2.86-10.725-0.20016-4.4075,0.02307-8.3754,0.49605-8.8176,1.1123-1.0398,10.604,1.4427,13.984,3.6574,2.9617,1.9406,5.584,7.4302,7.3774,15.444,1.7571,7.8514,1.3855,8.621-3.7321,7.7301zm12.054-3.45c2.037-12.663,5.948-19.24,12.954-21.789,7.61-2.768,9.018-2.569,9.887,1.392,0.98351,4.4839,0.22275,11.349-1.6614,14.993-1.7708,3.4244-10.967,8.076-17.405,8.804l-4.4013,0.49766,0.62697-3.8971zm-6.41-10.124c-1.384-3.639-0.965-13.944,0.738-18.171,1.881-4.6657,4.042-6.033,9.598-6.0702,4.7011-0.031476,4.7499,0.00169,4.739,3.2182-0.0061,1.7875-0.27834,4.8661-0.60508,6.8412-0.49629,3.0001-0.94712,3.5255-2.739,3.1916-3.38-0.63-5.565,1.738-5.735,6.217-0.228,5.97-0.84,7.5-3.002,7.5-1.211,0-2.353-1.04-2.994-2.727z"/>
  <path id="path3047" fill="#707070" d="M62.333,152.82c-4.736-1.25-8.333-6.07-8.333-11.17,0-4.8309,1.888-8.0194,6.011-10.151,5.8869-3.0442,12.665-0.80448,15.473,5.1129,1.8986,4.0011,1.9164,6.7181,0.06727,10.294-2.5693,4.9684-7.8503,7.3332-13.218,5.919zm-22.421-18.1c-6.1771-4.1628-7.5222-10.032-3.6259-15.822,4.1921-6.2295,12.382-7.0752,17.637-1.821,5.2542,5.2542,4.4086,13.444-1.821,17.637-4.3027,2.8955-7.8999,2.8974-12.19,0.007zm42.588,1.57c-7.2287-1.8784-10.976-9.6063-7.8043-16.095,2.5605-5.2383,8.1227-7.8619,13.348-6.2963,6.9912,2.0946,10.666,9.8971,7.5237,15.974-2.5255,4.8837-8.2156,7.6779-13.068,6.4171zm-20-18.114c-6.3721-1.2916-10.565-8.4154-8.5485-14.525,1.8132-5.4941,5.297-8.0317,11.026-8.0317,5.6069,0,7.9312,1.5661,10.566,7.1194,3.828,8.067-3.9563,17.279-13.044,15.437zm-31.857-5.23c-6.616-1.93-9.962-8.86-7.324-15.17,1.916-4.587,5.651-7.053,10.681-7.053,5.0435,0,8.763,2.4662,10.709,7.1005,3.634,8.6537-4.8713,17.796-14.067,15.119zm60.822-0.65033c-3.945-0.73589-7.6191-4.6743-8.4136-9.0186-1.6687-9.1253,6.8962-16.441,15.177-12.964,4.1047,1.7236,7.7644,6.7603,7.7644,10.686,0,3.0148-3.1955,8.5183-5.689,9.7978-2.5067,1.2864-6.4206,1.9501-8.8391,1.499zm-16.846-19.408c-6.757-1.85-10.216-8.903-7.213-14.71,2.2027-4.2595,5.3509-6.186,10.067-6.16,4.8401,0.02672,7.9512,2.2313,9.8473,6.9778,3.284,8.2209-4.0624,16.256-12.701,13.892zm-28.365-2.005c-1.9539-1.2513-3.5805-3.3347-4.0859-5.2332-3.4772-13.062,14.188-19.535,20.421-7.4824,1.3586,2.6273,1.4364,3.8007,0.46634,7.0384-2.1236,7.088-10.29,9.8473-16.801,5.6771zm-21.839-7.308c-9.8998-4.3104-9.7855-17.019,0.19053-21.187,13.201-5.5158,21.971,14.836,9.0372,20.974-4.1071,1.9489-5.1845,1.9739-9.2277,0.21343zm70.341-0.334c-9.789-6.069-5.195-21.245,6.434-21.245,4.5808,0,10.347,4.6034,11.321,9.0384,2.1376,9.7325-9.1858,17.519-17.753,12.207zm-49.645-17.805c-5.191-4.368-5.423-11.855-0.519-16.759,9.136-9.136,23.743,1.711,18.323,13.607-2.688,5.899-12.48,7.632-17.804,3.152zm27.771,1.1137c-2.833-1.601-5.882-7.047-5.882-10.505,0-6.006,5.728-11.049,12.55-11.049,2.8173,0,4.4251,0.77546,7.0497,3.4,2.8778,2.8778,3.4,4.1041,3.4,7.9842,0,6.4102-3.7837,10.646-10.032,11.231-2.8072,0.26273-5.4407-0.13172-7.0861-1.0614zm3.8495-23.209c0.67703-0.27392,2.027-0.2906,3-0.03705,0.97297,0.25354,0.41903,0.47766-1.231,0.49804s-2.4461-0.18706-1.769-0.46099zm-21.273-1.816c-7.468-1.701-13.672-5.467-15.707-9.534-1.781-3.56-2.525-16.423-1.002-17.318,1.1991-0.7046,11.015,2.1226,13.874,3.9961,2.9617,1.9406,5.584,7.4302,7.3774,15.444,1.8433,8.2368,1.505,8.7888-4.5426,7.4114zm12.889-3.279c2.013-12.509,5.953-19.104,12.93-21.642,7.611-2.768,9.019-2.57,9.883,1.392,0.68787,3.1555,0.60216,4.6906-0.64205,11.5-0.20099,1.1-0.39987,2.3193-0.44195,2.7095-0.35,3.244-13.251,9.79-19.294,9.79-2.952,0-3.021-0.107-2.435-3.75zm-6.434-9.977c-1.384-3.639-0.965-13.944,0.738-18.171,1.881-4.6657,4.042-6.033,9.598-6.0702,4.5255-0.0303,4.7495,0.098181,4.739,2.7182-0.0061,1.5125-0.28993,4.4375-0.63084,6.5-0.54095,3.2727-0.96943,3.75-3.3666,3.75-3.5628,0-4.8632,1.6802-5.0681,6.5484-0.249,5.939-0.862,7.452-3.015,7.452-1.211,0-2.353-1.04-2.994-2.727z"/>
  <path id="path3045" fill="#545454" d="M62.333,152.82c-4.736-1.25-8.333-6.07-8.333-11.17,0-4.8309,1.888-8.0194,6.011-10.151,5.8869-3.0442,12.665-0.80448,15.473,5.1129,1.8986,4.0011,1.9164,6.7181,0.06727,10.294-2.5693,4.9684-7.8503,7.3332-13.218,5.919zm-22.421-18.1c-6.1771-4.1628-7.5222-10.032-3.6259-15.822,4.1921-6.2295,12.382-7.0752,17.637-1.821,5.2542,5.2542,4.4086,13.444-1.821,17.637-4.3027,2.8955-7.8999,2.8974-12.19,0.007zm42.588,1.57c-7.2287-1.8784-10.976-9.6063-7.8043-16.095,2.5605-5.2383,8.1227-7.8619,13.348-6.2963,6.9912,2.0946,10.666,9.8971,7.5237,15.974-2.5255,4.8837-8.2156,7.6779-13.068,6.4171zm-20-18.114c-6.3721-1.2916-10.565-8.4154-8.5485-14.525,1.8132-5.4941,5.297-8.0317,11.026-8.0317,5.6069,0,7.9312,1.5661,10.566,7.1194,3.828,8.067-3.9563,17.279-13.044,15.437zm-31.857-5.23c-6.616-1.93-9.962-8.86-7.324-15.17,1.916-4.587,5.651-7.053,10.681-7.053,5.0435,0,8.763,2.4662,10.709,7.1005,3.634,8.6537-4.8713,17.796-14.067,15.119zm60.822-0.65033c-3.945-0.73589-7.6191-4.6743-8.4136-9.0186-1.6687-9.1253,6.8962-16.441,15.177-12.964,4.1047,1.7236,7.7644,6.7603,7.7644,10.686,0,3.0148-3.1955,8.5183-5.689,9.7978-2.5067,1.2864-6.4206,1.9501-8.8391,1.499zm-16.846-19.408c-6.757-1.85-10.216-8.903-7.213-14.71,2.2027-4.2595,5.3509-6.186,10.067-6.16,4.8401,0.02672,7.9512,2.2313,9.8473,6.9778,3.284,8.2209-4.0624,16.256-12.701,13.892zm-28.365-2.005c-1.9539-1.2513-3.5805-3.3347-4.0859-5.2332-3.4772-13.062,14.188-19.535,20.421-7.4824,1.3586,2.6273,1.4364,3.8007,0.46634,7.0384-2.1236,7.088-10.29,9.8473-16.801,5.6771zm-21.839-7.308c-9.8998-4.3104-9.7855-17.019,0.19053-21.187,13.201-5.5158,21.971,14.836,9.0372,20.974-4.1071,1.9489-5.1845,1.9739-9.2277,0.21343zm70.341-0.334c-9.789-6.069-5.195-21.245,6.434-21.245,4.5808,0,10.347,4.6034,11.321,9.0384,2.1376,9.7325-9.1858,17.519-17.753,12.207zm-49.645-17.805c-5.191-4.368-5.423-11.855-0.519-16.759,9.136-9.136,23.743,1.711,18.323,13.607-2.688,5.899-12.48,7.632-17.804,3.152zm27.771,1.1137c-2.833-1.601-5.882-7.047-5.882-10.505,0-6.006,5.728-11.049,12.55-11.049,2.8173,0,4.4251,0.77546,7.0497,3.4,2.8778,2.8778,3.4,4.1041,3.4,7.9842,0,6.4102-3.7837,10.646-10.032,11.231-2.8072,0.26273-5.4407-0.13172-7.0861-1.0614zm-17.851-25.118c-3.007-0.686-5.633-1.743-5.835-2.348s-0.778-0.846-1.281-0.535-0.915,0.062-0.915-0.553-0.417-0.86-0.928-0.545c-1.467,0.907-6.024-3.655-6.945-6.955-0.46102-1.65-0.79059-5.7-0.73238-9l0.10584-6,4.0737,0.17183c5.1464,0.21708,10.294,3.0512,13.124,7.226,2.0802,3.0688,5.8825,17.043,5.1463,18.914-0.18896,0.48007-2.8045,0.31114-5.8122-0.37539zm14.271-5.0733c0.32379-3.1373,1.8271-8.1263,3.3899-11.25,3.0506-6.0975,7.166-8.8775,14.628-9.881l3.8194-0.5137-0.20311,7.891c-0.216,8.399-0.978,10.779-4.333,13.538-2.782,2.288-12.12,5.853-15.332,5.853-2.502,0-2.54-0.109-1.969-5.637zm-7.068-7.113c-0.38672-0.9625-0.69265-5.1457-0.67984-9.2959,0.01762-5.7099,0.51046-8.3801,2.0256-10.974,2.2202-3.8016,6.6324-5.6452,10.929-4.5668,2.4021,0.60288,2.5946,1.003,2.1052,4.3753-0.296,2.0415-0.555,4.7235-0.576,5.9615-0.03,1.775-0.619,2.253-2.788,2.265-4.56,0.026-5.577,1.355-6.051,7.906-0.373,5.165-0.727,6.079-2.351,6.079-1.051,0-2.227-0.788-2.614-1.75z"/>
  <path id="path3043" fill="#2c2c2c" d="m55.251,40.403c-6.4339-1.669-12.126-4.4998-14.642-7.2816-1.4879-1.6453-1.9146-3.7478-2-9.8564l-0.109-7.765,4.0737,0.17183c5.1464,0.21708,10.294,3.0512,13.124,7.226,1.9563,2.886,6.0853,17.706,5.1652,18.539-0.19934,0.18047-2.7246-0.28463-5.6118-1.0336zm14.054-4.072c0.321-3.105,1.831-8.109,3.387-11.218,3.042-6.081,7.166-8.878,14.558-9.872l3.75-0.50439v6.7305c0,11.5-2.8926,14.927-15.683,18.585l-6.5906,1.8847,0.57856-5.6057zm-7.547-8.815c-1.038-5.43-0.03-15.365,1.893-18.658,2.148-3.6779,6.62-5.5087,10.858-4.4451,2.4021,0.60288,2.5946,1.003,2.1052,4.3753-0.29626,2.0415-0.55566,4.6161-0.57643,5.7214-0.02987,1.5893-0.70852,2.0076-3.2447,2-3.907-0.012-5.756,2.946-5.778,9.24-0.013,3.807-0.263,4.25-2.398,4.25-1.745,0-2.511-0.666-2.859-2.484z"/>
 </g>
</svg>
