<?xml version="1.0" encoding="UTF-8" standalone="no"?>
<!-- Created with Inkscape (http://www.inkscape.org/) -->

<svg
   xmlns:dc="http://purl.org/dc/elements/1.1/"
   xmlns:cc="http://creativecommons.org/ns#"
   xmlns:rdf="http://www.w3.org/1999/02/22-rdf-syntax-ns#"
   xmlns:svg="http://www.w3.org/2000/svg"
   xmlns="http://www.w3.org/2000/svg"
   xmlns:sodipodi="http://sodipodi.sourceforge.net/DTD/sodipodi-0.dtd"
   xmlns:inkscape="http://www.inkscape.org/namespaces/inkscape"
   id="svg2985"
   version="1.1"
   inkscape:version="0.48.4 r9939"
   width="133"
   height="163"
   sodipodi:docname="logo.gif">
  <metadata
     id="metadata2991">
    <rdf:RDF>
      <cc:Work
         rdf:about="">
        <dc:format>image/svg+xml</dc:format>
        <dc:type
           rdf:resource="http://purl.org/dc/dcmitype/StillImage" />
        <dc:title></dc:title>
      </cc:Work>
    </rdf:RDF>
  </metadata>
  <defs
     id="defs2989" />
  <sodipodi:namedview
     pagecolor="#ffffff"
     bordercolor="#666666"
     borderopacity="1"
     objecttolerance="10"
     gridtolerance="10"
     guidetolerance="10"
     inkscape:pageopacity="0"
     inkscape:pageshadow="2"
     inkscape:window-width="1920"
     inkscape:window-height="1058"
     id="namedview2987"
     showgrid="false"
     inkscape:zoom="5.3435583"
     inkscape:cx="66.5"
     inkscape:cy="81.5"
     inkscape:window-x="-8"
     inkscape:window-y="-8"
     inkscape:window-maximized="1"
     inkscape:current-layer="svg2985" />
  <g
     id="g2995">
    <path
       style="fill:#fefefe"
       d="M 0,81.5 0,0 66.5,0 133,0 133,81.5 133,163 66.5,163 0,163 0,81.5 z"
       id="path3011"
       inkscape:connector-curvature="0" />
    <path
       style="fill:#fefecb"
       d="m 58.972801,151.75 c -4.894341,-3.31399 -6.884233,-7.41517 -5.701103,-11.75 1.351298,-4.95098 4.247989,-8.65131 7.467223,-9.53888 3.535888,-0.97487 10.199407,-1.17035 9.651067,-0.28312 -0.230466,0.37291 0.375005,0.94672 1.345491,1.27514 2.424352,0.82044 5.234432,4.91261 5.489457,7.99402 0.116204,1.40406 0.675631,2.55973 1.243172,2.56815 0.692132,0.0103 0.698356,0.25722 0.0189,0.75 -0.557145,0.40408 -1.463086,2.07077 -2.013202,3.70375 C 75.21348,150.21026 69.691215,154 65.5,154 c -1.762328,0 -4.699568,-1.0125 -6.527199,-2.25 z M 37.4,133.6 c -1.87,-1.87 -3.4,-4.31844 -3.4,-5.44098 0,-1.12254 -0.422273,-2.30196 -0.938383,-2.62094 -1.334357,-0.82468 2.966494,-8.49983 5.810352,-10.36896 2.448086,-1.609 12.372254,-3.3733 11.557267,-2.05462 -0.52679,0.85236 3.462644,2.32695 4.227145,1.56245 0.278113,-0.27811 -0.02331,-1.49405 -0.669832,-2.70208 -1.059687,-1.98005 -1.01662,-7.0015 0.09413,-10.97487 0.473133,-1.692492 4.247682,-4.643272 7.766778,-6.071732 1.506302,-0.611433 3.679595,-0.594164 6.06513,0.04819 11.033955,2.971135 12.540442,17.429252 2.38252,22.865602 -3.368214,1.80262 -8.737215,1.38462 -11.650591,-0.90704 -1.443862,-1.13575 -3.147719,-1.74206 -3.786349,-1.34736 -0.816735,0.50477 -0.636677,1.10113 0.607047,2.01056 1.042383,0.76221 1.971246,3.09442 2.262864,5.68164 C 58.654684,131.5007 53.532839,137 44.94966,137 41.563772,137 40.174208,136.37421 37.4,133.6 z m 41.472804,1.71629 c -5.432162,-3.37132 -7.40335,-10.50759 -4.451561,-16.11595 1.644954,-3.12539 5.140927,-6.30484 5.994242,-5.45152 C 80.736968,114.0703 81,113.87554 81,113.31601 c 0,-0.66432 1.821674,-0.73383 5.25,-0.20031 9.31966,1.45033 13.526665,9.61414 9.233073,17.91703 -2.857818,5.52641 -11.1585,7.66704 -16.610269,4.28356 z M 27.642953,112.7687 C 27.904248,112.34591 27.634862,112 27.044319,112 25.196515,112 22.007649,105.66231 22.003738,101.98213 21.999553,98.043852 26.189326,91 28.536051,91 c 0.805172,0 1.463837,-0.3375 1.4637,-0.75 -1.37e-4,-0.4125 2.211437,-0.75 4.914608,-0.75 2.703171,0 4.795237,0.120546 4.649035,0.26788 -0.146202,0.147335 1.187306,1.808645 2.963351,3.691801 5.284849,5.603572 5.216034,11.730869 -0.192489,17.139399 -3.317218,3.31721 -3.844622,3.49942 -9.341051,3.22701 -3.203933,-0.15878 -5.611547,-0.63461 -5.350252,-1.05739 z m 60.229851,-1.45241 c -5.968922,-3.70445 -7.581936,-11.484343 -3.604693,-17.386174 2.678758,-3.975008 6.852866,-5.439419 12.910644,-4.529468 10.556675,1.585741 12.464985,17.112382 2.722405,22.150462 -3.67072,1.89821 -8.751249,1.79902 -12.028356,-0.23482 z M 46.567426,92.053655 c -10.59261,-6.982696 -4.751098,-22.414406 7.845321,-20.725239 10.815009,1.450281 13.274827,15.661557 3.602855,20.815014 -4.444143,2.367945 -7.759303,2.341948 -11.448176,-0.08977 z m 25.325843,0.449436 C 68.38974,90.598822 66,86.739418 66,82.985523 66,69.258372 84.492812,66.609109 88.334964,79.785837 c 1.23296,4.228458 1.179546,4.922688 -0.612439,7.959875 -3.401196,5.764598 -10.210791,7.811177 -15.829256,4.757379 z M 93.042107,82.154836 C 88.388506,77.727972 87.446616,72.666971 90.314731,67.5 c 0.610595,-1.1 1.00342,-2.370948 0.872944,-2.82433 -0.130475,-0.453381 0.172933,-0.570836 0.674242,-0.26101 0.501308,0.309825 1.457675,-0.09482 2.125259,-0.899208 1.946021,-2.344811 7.260834,-2.856492 11.457404,-1.103055 2.07234,0.865878 4.23961,1.282783 4.81616,0.926455 0.57655,-0.356328 0.75614,-0.175175 0.39908,0.402561 -0.35707,0.577737 0.0206,2.334766 0.83933,3.904509 3.24597,6.223763 0.89,13.992467 -5.10634,16.83792 -5.39635,2.560735 -8.84248,1.959564 -13.350703,-2.329006 z M 23.030015,83.720689 C 19.178158,81.771627 15.75022,76.035204 16.32482,72.5 17.145695,67.449597 17.417542,66.827443 19.93967,64.226996 21.57822,62.537565 23.84382,61.5465 26.839154,61.208883 39.163558,59.819744 45.586183,73.406279 36.549348,81.75 32.681071,85.321585 27.64467,86.055732 23.030015,83.720689 z M 45.897883,66.720072 c -2.269381,-1.522719 -3.843806,-3.679125 -4.740543,-6.492865 -1.227147,-3.850488 -1.156871,-4.596728 0.816857,-8.673905 1.187734,-2.453531 3.035965,-4.73914 4.10718,-5.07913 1.071216,-0.339991 1.742541,-0.950061 1.491835,-1.355713 -0.250707,-0.405652 2.320682,-0.410171 5.714197,-0.01004 5.108295,0.602316 6.560161,1.214839 8.437207,3.559544 5.384784,6.726384 3.668964,15.008671 -3.922596,18.934419 -3.915577,2.024824 -8.025489,1.720207 -11.904137,-0.882307 z m 28.520555,1.311075 c -1.144858,-0.463144 -3.282358,-2.269146 -4.75,-4.013339 -3.625702,-4.308902 -3.6623,-10.464453 -0.09348,-15.723399 1.416225,-2.086925 2.766225,-3.681909 3,-3.544409 0.233774,0.1375 1.437544,0.243109 2.675044,0.234687 1.614689,-0.01099 1.87318,-0.254175 0.915465,-0.861262 -1.978951,-1.254439 2.46625,-2.214051 5.181767,-1.118619 1.340622,0.540804 1.586883,0.907101 0.652768,0.97095 -0.825,0.05639 -0.111834,0.706936 1.584814,1.445656 1.696647,0.738721 3.999408,2.505847 5.117245,3.926947 1.117837,1.421099 2.23566,2.380589 2.48405,2.132199 1.294011,-1.294011 -1.057936,9.674881 -2.568963,11.980999 -2.869525,4.379448 -9.440904,6.494324 -14.198708,4.56959 z M 50.730968,43.344063 c 0.677033,-0.273923 2.027033,-0.290597 3,-0.03705 0.972968,0.25354 0.419032,0.477659 -1.230968,0.498038 -1.65,0.02038 -2.446064,-0.187065 -1.769032,-0.460988 z M 51.26786,41.044736 C 45.417718,38.939197 40.437407,35.713508 39.125785,33.180457 37.671522,30.371934 36.811748,22.073727 37.532818,17.805752 l 0.680403,-4.027273 3.998363,0.639364 c 4.641792,0.742253 9.334966,2.944091 12.55766,5.891523 C 57.427977,22.741007 61,33.516525 61,39.105335 c 0,3.382934 -0.295634,3.889925 -2.25,3.858589 -1.2375,-0.01984 -4.604463,-0.883476 -7.48214,-1.919188 z M 68,40.677029 c 0,-4.24363 2.119469,-12.926073 4.121522,-16.883888 2.187977,-4.325364 8.414208,-8.285125 14.589037,-9.278343 3.9636,-0.637543 4.249824,-0.520825 4.880004,1.990011 0.971145,3.869351 -0.09919,14.729936 -1.709676,17.347886 C 88.157906,36.653516 77.912141,41.740206 72.25,42.605858 68.180805,43.227974 68,43.145917 68,40.677029 z M 61.52117,30.066699 C 61.183686,29.003384 60.866427,24.600806 60.816149,20.283192 60.724558,12.417923 62.074518,7.8428973 65.269286,5.191476 66.975966,3.7750574 75.760598,3.3171212 76.874875,4.5864854 77.315923,5.0889184 77.412004,8.2 77.08839,11.5 76.521851,17.277179 76.38859,17.511595 73.5,17.812217 69.376829,18.241324 68,20.464004 68,26.69113 68,31.896099 67.942605,32 65.067388,32 63.046759,32 61.943956,31.398782 61.52117,30.066699 z"
       id="path3009"
       inkscape:connector-curvature="0" />
    <path
       style="fill:#cba9d0"
       d="m 58.912452,151.71998 c -5.970751,-4.02368 -7.380835,-9.48542 -4.062534,-15.73558 5.768282,-10.8648 22.435796,-6.82202 22.435796,5.44191 0,5.23346 -1.534592,8.14489 -5.599536,10.62346 -4.221287,2.5739 -8.633995,2.45998 -12.773726,-0.32979 z M 37.4,133.6 c -5.948635,-5.94863 -4.621566,-15.36558 2.69884,-19.15111 5.779948,-2.98893 12.002995,-1.43294 15.669479,3.91794 C 61.58254,126.85213 55.690557,137 44.94966,137 41.563772,137 40.174208,136.37421 37.4,133.6 z m 41.472804,1.71629 c -5.512768,-3.42135 -7.392544,-10.47676 -4.355877,-16.34902 2.161644,-4.18016 6.791079,-6.30537 12.366346,-5.67696 14.821697,1.67062 12.87445,23.80371 -2.083613,23.68308 -1.814813,-0.0146 -4.481898,-0.76033 -5.926856,-1.6571 z M 58.288923,116.75 C 54.610384,114.14964 53,111.15149 53,106.90329 c 0,-8.140988 7.897597,-14.167473 15.318185,-11.688978 6.986264,2.33343 10.407409,8.634188 8.190124,15.083848 -2.837062,8.25246 -11.388404,11.28066 -18.219386,6.45184 z M 27.762571,112.43461 C 22.076483,109.34937 20.380775,101.35603 24.126606,95.295148 26.558869,91.359663 29.401478,90 35.197023,90 c 3.339285,0 4.647526,0.615724 7.312859,3.441801 5.280742,5.599218 5.238261,11.743389 -0.118228,17.099879 -2.873714,2.87371 -4.171121,3.45155 -7.674987,3.41828 -2.319167,-0.022 -5.44851,-0.70843 -6.954096,-1.52535 z m 60.110233,-1.11832 c -11.248085,-6.98081 -5.350114,-23.531911 7.855175,-22.043483 5.229151,0.589401 8.509761,3.336887 10.075341,8.438026 3.08186,10.041597 -8.955604,19.175477 -17.930516,13.605457 z M 46.567426,92.053655 c -10.59261,-6.982696 -4.751098,-22.414406 7.845321,-20.725239 10.912473,1.463351 13.192088,16.309502 3.230175,21.036739 -4.508123,2.139244 -7.484766,2.055526 -11.075496,-0.3115 z m 25.325843,0.449436 C 61.687073,86.95573 65.908453,71 77.582306,71 c 8.035096,0 13.92979,9.845296 10.064833,16.810244 -3.0246,5.450562 -10.34681,7.631741 -15.75387,4.692847 z m 21.846943,-9.5657 C 87.53374,77.821493 87.102939,70.633317 92.655465,64.837729 c 3.503173,-3.656524 7.827025,-4.428721 13.064355,-2.333159 9.35176,3.741833 9.77788,17.658716 0.67299,21.979272 -4.89853,2.324501 -8.488827,1.88568 -12.652598,-1.546451 z M 24,84.293772 C 18.565556,82.307181 15.148001,75.111612 16.989199,69.532726 20.51238,58.857385 34.965661,57.944632 39.548723,68.108047 41.91779,73.361699 40.864555,78.033727 36.434221,81.923611 32.994295,84.943906 28.251549,85.847949 24,84.293772 z m 21.897883,-17.5737 c -2.269381,-1.522719 -3.843806,-3.679125 -4.740543,-6.492865 -1.22485,-3.843282 -1.155698,-4.59915 0.78812,-8.614542 2.576643,-5.322634 6.138829,-7.088698 12.786673,-6.33939 3.600849,0.405868 5.231896,1.195339 6.979326,3.378185 4.930651,6.159247 3.614644,14.350034 -2.948544,18.351646 -4.294331,2.618278 -8.685033,2.521681 -12.865032,-0.283034 z m 27.468831,0.361866 C 68.791055,64.291836 67,61.174416 67,56.000355 c 0,-3.644747 0.588053,-5.198468 2.943629,-7.777494 1.6702,-1.828635 3.941377,-3.229485 5.25,-3.238174 1.645527,-0.01093 1.923987,-0.257702 0.971836,-0.861262 -1.036602,-0.657093 -0.924978,-0.944293 0.5,-1.286462 2.571458,-0.617464 5.471262,0.132791 4.787761,1.238719 C 81.139033,44.584057 81.628524,45 82.540983,45 83.453442,45 85.73,46.53 87.6,48.4 c 2.691613,2.691613 3.399221,4.202144 3.396262,7.25 -0.0049,5.048257 -3.189552,10.114989 -7.48604,11.910176 -4.54681,1.899778 -6.385848,1.813073 -10.143508,-0.478238 z M 50.730968,43.344063 c 0.677033,-0.273923 2.027033,-0.290597 3,-0.03705 C 54.703936,43.560557 54.15,43.784676 52.5,43.805055 50.85,43.825435 50.053936,43.61799 50.730968,43.344067 z m 0.411459,-2.3435 C 44.590525,38.643641 39.182961,34.660271 38.523417,31.705032 36.771633,23.855762 37.287062,14 39.449341,14 42.845387,14 51.439304,17.4375 53.952142,19.801009 57.272202,22.923768 61,33.080726 61,39.003982 c 0,3.488041 -0.286022,3.991432 -2.25,3.959942 -1.2375,-0.01984 -4.660908,-0.903354 -7.607573,-1.963361 z m 17.199459,-3.252388 c 1.053552,-8.964084 4.443984,-16.582212 8.58669,-19.293857 5.096636,-3.336047 12.970874,-5.189837 14.223911,-3.34866 1.369193,2.011853 0.450792,15.980335 -1.229032,18.693051 -1.784129,2.881156 -11.99298,7.938339 -17.829083,8.832035 l -4.405627,0.674644 0.653141,-5.557213 z M 61.748847,30.75 C 61.493026,30.0625 61.19263,25.838265 61.081303,21.362812 60.858432,12.403263 62.473833,6.8871473 65.8496,5.0804914 68.417335,3.7062814 76.72278,3.668339 77.176249,5.0287469 77.364853,5.5945577 77.289853,8.6320577 77.009582,11.778747 76.520792,17.266565 76.377596,17.512739 73.5,17.812217 69.376829,18.241324 68,20.464004 68,26.69113 68,31.879579 67.934378,32 65.106989,32 c -1.591156,0 -3.10232,-0.5625 -3.358142,-1.25 z"
       id="path3007"
       inkscape:connector-curvature="0" />
    <path
       style="fill:#9867cb"
       d="M 60.325477,152.54087 C 54.467158,149.99263 51.600848,142.60634 54.38272,137.22679 56.647352,132.84748 60.706435,130 64.684519,130 c 13.445166,0 17.055169,17.45038 4.679699,22.62118 -4.031134,1.68432 -5.001751,1.67569 -9.038741,-0.0803 z M 40.5,135.78436 c -7.3897,-4.26688 -8.734686,-12.37527 -3.076839,-18.54905 3.073607,-3.35388 3.930857,-3.73531 8.395012,-3.73531 5.669372,0 8.599413,1.97113 10.855274,7.30268 2.017065,4.76717 0.809915,9.56574 -3.318214,13.19028 -3.70016,3.24879 -9.042025,3.99319 -12.855233,1.7914 z m 39,-0.62604 c -4.551979,-2.78308 -5.828831,-4.85145 -6.114063,-9.90414 -0.235499,-4.17172 0.106289,-4.9817 3.559126,-8.43454 C 79.999756,113.76495 81.50837,113 84.478061,113 c 13.170055,0 17.180539,16.4711 5.483303,22.51998 -3.801551,1.96586 -6.82549,1.86132 -10.461364,-0.36166 z m -19,-17.11235 c -3.520784,-1.45629 -6.648255,-5.73241 -7.199739,-9.84402 C 52.339944,101.04225 57.933542,95 65.521939,95 c 5.126353,0 11.479838,6.16413 11.474323,11.13235 -0.0095,8.52379 -8.997811,15.01519 -16.496262,11.91362 z M 26.235315,110.57684 C 22.865153,107.48832 22.5,106.65926 22.5,102.09607 c 0,-4.378789 0.438788,-5.496396 3.269231,-8.326839 C 28.599674,90.938788 29.717281,90.5 34.09607,90.5 c 4.563192,0 5.392247,0.365153 8.480769,3.735315 C 45.319514,97.228091 46,98.792091 46,102.10296 c 0,3.46685 -0.625224,4.75756 -3.882353,8.01469 C 38.860518,113.37478 37.569812,114 34.102962,114 c -3.310871,0 -4.874871,-0.68049 -7.867647,-3.42316 z m 62.00177,0.42627 C 83.938898,108.38248 81.532393,103.3061 82.398821,98.687638 83.316379,93.796635 88.877515,89 93.630504,89 c 12.771016,0 17.078586,16.95337 5.687722,22.38529 -4.454527,2.12422 -7.121148,2.03225 -11.081141,-0.38218 z M 48.5,92.597485 C 42.079663,89.763482 39.678983,83.586095 42.603162,77.423846 44.293493,73.861737 48.732138,71 52.566752,71 c 3.049232,0 8.015427,3.022674 9.727185,5.92045 3.407172,5.767881 1.20132,12.220722 -5.332573,15.59953 -3.451917,1.785055 -4.569771,1.795295 -8.461364,0.07751 z m 24.287855,0.284748 C 69.566031,91.666199 66,86.305892 66,82.679019 c 0,-6.326393 5.052607,-11.164176 11.669436,-11.173281 4.676736,-0.0064 8.32935,2.662903 10.363438,7.573628 3.37984,8.159654 -6.498971,17.103948 -15.245019,13.802867 z m 24.246773,-8.247274 c -4.171332,-1.366171 -8.037287,-6.679108 -8.028039,-11.032842 0.01302,-6.132063 5.484943,-11.498938 11.793071,-11.566682 9.58503,-0.102934 15.19009,9.549007 10.25011,17.650743 -3.14727,5.16163 -8.06418,6.897804 -14.015142,4.948781 z M 22.762571,83.434612 C 21.256985,82.617689 19.27897,80.506363 18.366984,78.742774 12.716758,67.816442 24.293462,56.613337 34.686178,62.950227 c 3.606238,2.19888 4.902209,4.194298 5.599406,8.62145 1.456485,9.248594 -9.13113,16.416322 -17.523013,11.862935 z m 24.68609,-15.937105 c -8.351698,-4.255812 -8.51204,-16.827772 -0.268987,-21.09042 9.571703,-4.94972 20.616494,4.964978 16.501641,14.813207 -2.654732,6.353668 -10.289098,9.305898 -16.232654,6.277213 z M 72.216795,66.439296 C 69.321158,64.411113 67,59.854153 67,56.197543 c 0,-4.143248 3.941583,-9.492599 7.961641,-10.805205 2.167975,-0.707876 2.877335,-1.311007 1.965372,-1.671053 -0.784857,-0.309865 -0.162955,-0.598917 1.382004,-0.642338 1.544959,-0.04342 2.564763,0.316264 2.266231,0.799299 -0.298532,0.483036 0.754838,1.137771 2.340823,1.454968 4.112245,0.822449 7.580436,6.079651 7.582377,11.493625 0.0013,3.720209 -0.522146,4.806773 -3.733763,7.75 C 83.724978,67.362523 82.230061,68 78.737191,68 76.376493,68 73.442315,67.297683 72.216795,66.439296 z M 54,41.572294 C 44.837202,39.029372 39.449744,34.925485 38.485237,29.753951 38.151457,27.964278 38.018232,23.8 38.189182,20.5 38.465757,15.161015 38.720338,14.529923 40.5,14.771611 c 5.069074,0.688408 10.411537,2.585958 12.84894,4.563719 2.986382,2.423215 6.469798,11.338574 7.356948,18.829169 0.643913,5.436838 0.630264,5.443774 -6.705888,3.407795 z m 14.307418,-2.681893 c 1.789444,-12.717637 5.84929,-19.691827 12.97102,-22.282217 7.610457,-2.768156 9.018363,-2.569877 9.882813,1.391816 1.019478,4.672175 0.07635,12.940854 -1.806866,15.841331 -1.733947,2.670576 -11.946377,7.695703 -17.759553,8.738764 l -3.905168,0.700706 0.617754,-4.3904 z M 61.445011,26.481875 C 60.590128,20.781107 61.39263,12.006616 63.054083,8.8884116 65.038557,5.1639648 67.117216,4.0661697 72.25,4.0318034 L 77,4 77,7.875 c 0,2.13125 -0.28125,5.28125 -0.625,7 C 75.823989,17.630054 75.352714,18 72.394052,18 68.66007,18 67.832022,19.59116 67.694588,27.030402 67.627235,30.676197 67.396987,31 64.871899,31 62.378412,31 62.059492,30.579525 61.445011,26.481875 z"
       id="path3005"
       inkscape:connector-curvature="0" />
    <path
       style="fill:#985698"
       d="M 60.479635,152.12235 C 55.956117,150.07576 54,146.77104 54,141.17545 c 0,-8.5545 9.542134,-13.92185 16.960167,-9.53991 6.26742,3.70226 7.940815,11.95182 3.495913,17.23429 -2.297168,2.73003 -3.47108,3.37975 -8.45608,4.68016 -0.825,0.21522 -3.309164,-0.42722 -5.520365,-1.42764 z M 40.487128,135.88531 C 37.255315,134.31294 34,128.73256 34,124.76485 c 0,-4.56749 3.845833,-9.35216 8.564276,-10.65499 9.484976,-2.61892 17.742825,6.43271 14.012838,15.35982 -2.510987,6.00964 -10.43245,9.1682 -16.089986,6.41563 z M 80,135.24845 c -2.17302,-1.08555 -4.224851,-3.23329 -5.411845,-5.66483 -1.736105,-3.55637 -1.782066,-4.28875 -0.5,-7.9674 C 75.636683,117.17301 80.734544,113 84.613956,113 c 4.339864,0 9.12958,3.10486 10.922177,7.08013 3.025611,6.70961 0.234236,13.16865 -6.851233,15.85326 -3.761575,1.42522 -4.591907,1.35974 -8.6849,-0.68494 z m -19.674523,-17.6686 c -4.051318,-1.81198 -6.537687,-5.61948 -6.888818,-10.54917 -0.226294,-3.17705 0.324431,-4.57764 3.030344,-7.706677 3.07662,-3.557716 3.673404,-3.818695 8.570084,-3.747777 4.599658,0.06661 5.619822,0.475369 8.092062,3.242287 3.668607,4.105887 4.43304,7.417447 2.739419,11.867287 -2.475175,6.5033 -9.475022,9.60804 -15.543091,6.89405 z m -32.543567,-5.9406 c -2.058896,-1.38296 -3.824092,-3.76067 -4.736834,-6.38051 -1.304957,-3.74561 -1.283261,-4.53605 0.21048,-7.668456 2.189423,-4.591268 5.866401,-6.879796 11.240246,-6.995859 3.543343,-0.07653 4.950753,0.459992 7.425637,2.830736 10.094393,9.669629 -2.570916,25.984669 -14.139529,18.214089 z m 61.339585,-0.34916 c -8.500505,-4.18765 -8.944872,-15.37826 -0.807673,-20.339863 3.845775,-2.344936 6.817458,-2.456296 11.115894,-0.416555 3.371444,1.599853 6.573144,6.841435 6.566544,10.750258 -0.006,3.56499 -3.76129,8.71995 -7.486038,10.27625 -4.326943,1.80791 -5.222918,1.78213 -9.388727,-0.27009 z M 74.88603,93.22264 c -1.437683,-0.181078 -3.912683,-1.684797 -5.5,-3.341599 -7.383664,-7.706885 -0.156991,-20.197519 10.318676,-17.834872 4.373304,0.98634 7.103348,3.457067 8.146281,7.372496 2.148891,8.067466 -4.267784,14.899392 -12.964957,13.803975 z M 45.669303,90.954514 c -2.897051,-2.278821 -4.6928,-7.380769 -3.955454,-11.237943 0.266207,-1.392574 1.761047,-3.755429 3.321866,-5.250789 5.385882,-5.160001 14.232605,-3.165006 17.638697,3.977644 2.003592,4.201575 1.173795,7.862213 -2.648701,11.684709 -3.629743,3.629743 -10.304093,4.01393 -14.356408,0.826379 z M 23.400555,83.325921 C 14.94058,79.105628 14.914389,66.641163 23.357078,62.634845 27.623031,60.610518 29.33432,60.59028 33.392808,62.516158 37.404078,64.41963 40,68.723336 40,73.470034 c 0,4.747027 -1.208741,6.877822 -5.355384,9.440589 -3.953984,2.443696 -6.955699,2.554564 -11.244061,0.415298 z m 71.48092,0.170991 C 92.21782,82.049374 89,76.579952 89,73.5 c 0,-3.109505 2.996722,-8.066848 5.92045,-9.793937 5.93685,-3.506985 13.60226,-1.338996 16.44471,4.651015 2.00159,4.218039 2.034,5.751838 0.21362,10.108623 -2.43452,5.826618 -10.66831,8.307613 -16.697305,5.031211 z M 48.381976,67.518562 C 41.808043,64.754431 39.170127,57.439265 42.455949,51.085185 43.996024,48.107009 49.35454,45 52.950789,45 c 2.979267,0 7.622681,2.552956 9.488507,5.216795 1.95968,2.797835 2.012464,9.008917 0.107862,12.692011 -2.314309,4.475381 -9.174898,6.708013 -14.165182,4.609756 z m 24.380595,-1.08395 c -1.505586,-0.816923 -3.418086,-2.801559 -4.25,-4.410303 -4.514644,-8.730358 2.095196,-17.892197 12.095204,-16.765051 4.65949,0.525192 6.369854,1.77941 8.577117,6.289639 4.979561,10.175026 -6.285403,20.385947 -16.422321,14.885715 z m 3.968397,-23.090549 c 0.677033,-0.273923 2.027033,-0.290597 3,-0.03705 0.972968,0.25354 0.419032,0.477659 -1.230968,0.498038 -1.65,0.02038 -2.446064,-0.187065 -1.769032,-0.460988 z M 56.2697,41.847426 C 50.354803,40.817764 43.949076,37.759635 41.003946,34.559472 38.864763,32.235047 38.455862,30.701529 38.143973,23.83361 c -0.200156,-4.407515 0.02307,-8.375422 0.496054,-8.817572 1.112297,-1.039783 10.604296,1.442718 13.984348,3.657413 2.961666,1.940558 5.584017,7.430196 7.377398,15.443867 1.757061,7.851375 1.385501,8.620973 -3.732073,7.730108 z M 68.324302,38.39711 C 70.361464,25.734465 74.272215,19.15656 81.278438,16.608184 88.888199,13.840282 90.29632,14.03851 91.165236,18 c 0.983509,4.483929 0.222751,11.349035 -1.661405,14.992592 -1.77084,3.424426 -10.966832,8.075991 -17.405163,8.803971 l -4.401332,0.497656 0.626966,-3.897109 z M 61.91377,28.273199 C 60.52998,24.633555 60.948623,14.329196 62.652005,10.102485 64.532512,5.436265 66.69421,4.0690019 72.25,4.0318034 c 4.701052,-0.031476 4.749887,0.00169 4.738994,3.2181966 -0.0061,1.7875 -0.278338,4.866058 -0.605079,6.841241 -0.496292,3.000142 -0.947116,3.52546 -2.738994,3.19159 C 70.264894,16.653049 68.080061,19.021418 67.909547,23.5 67.682252,29.469983 67.069901,31 64.907861,31 63.696726,31 62.555255,29.960431 61.91377,28.273199 z"
       id="path3003"
       inkscape:connector-curvature="0" />
    <path
       style="fill:#53a954"
       d="M 62.332914,152.82017 C 57.596623,151.57237 54,146.74932 54,141.64578 c 0,-4.83092 1.887997,-8.01938 6.011044,-10.15149 5.886868,-3.04422 12.664815,-0.80448 15.472798,5.1129 1.898649,4.00111 1.916404,6.71814 0.06727,10.29397 -2.569253,4.96839 -7.850313,7.33321 -13.218198,5.91901 z M 39.912452,134.71998 c -6.177137,-4.16277 -7.522191,-10.0321 -3.625895,-15.8221 4.192069,-6.22952 12.382316,-7.07516 17.63652,-1.82096 5.254204,5.25421 4.408565,13.44445 -1.82096,17.63652 -4.302744,2.89547 -7.89992,2.8974 -12.189665,0.007 z M 82.5,136.28618 c -7.228726,-1.87839 -10.975954,-9.60627 -7.804337,-16.09483 2.560474,-5.23827 8.12274,-7.86194 13.348365,-6.2963 6.991229,2.09462 10.666158,9.89714 7.523663,15.97405 -2.525458,4.8837 -8.215565,7.67791 -13.067691,6.41708 z m -20,-18.11432 c -6.372092,-1.29157 -10.56481,-8.41542 -8.548531,-14.52481 1.813218,-5.494104 5.296965,-8.031665 11.026446,-8.031665 5.606911,0 7.931247,1.566073 10.566471,7.119395 3.828023,8.06696 -3.95632,17.27916 -13.044386,15.43708 z M 30.64255,112.94714 C 24.026975,111.02171 20.681056,104.09244 23.318685,97.779706 25.235129,93.193008 28.969627,90.727273 34,90.727273 c 5.043454,0 8.763028,2.466192 10.709166,7.100508 3.634034,8.653689 -4.871343,17.795599 -14.066616,15.119359 z m 60.821886,-0.65033 c -3.94499,-0.73589 -7.619143,-4.67426 -8.413563,-9.01861 -1.668688,-9.125344 6.896226,-16.441284 15.17723,-12.964016 4.104737,1.723617 7.764417,6.76027 7.764417,10.685816 0,3.0148 -3.19554,8.5183 -5.68901,9.79785 -2.50674,1.28635 -6.420631,1.95009 -8.839074,1.49896 z M 74.619302,92.891659 C 67.86181,91.041774 64.403054,83.988833 67.405788,78.182186 c 2.202696,-4.259545 5.350926,-6.185986 10.066718,-6.15995 4.840062,0.02672 7.951208,2.23127 9.8473,6.977764 3.284036,8.220935 -4.062394,16.256371 -12.700504,13.891659 z M 46.253763,90.887334 c -1.953852,-1.251296 -3.580512,-3.334708 -4.085874,-5.233153 -3.477185,-13.062408 14.18822,-19.535156 20.420943,-7.482399 1.358638,2.627315 1.436382,3.800696 0.46634,7.038406 -2.123617,7.088002 -10.289814,9.847336 -16.801409,5.677146 z M 24.415186,83.578588 c -9.899778,-4.310366 -9.785495,-17.018956 0.190528,-21.187205 13.201138,-5.515788 21.970558,14.836496 9.037208,20.973772 -4.107082,1.948938 -5.184501,1.973858 -9.227736,0.213433 z M 94.755662,83.245209 C 84.966599,77.175696 89.561084,62 101.18771,62 c 4.58085,0 10.34663,4.603388 11.32073,9.03845 2.13763,9.732523 -9.18585,17.518512 -17.752778,12.206759 z M 45.11073,65.439719 C 39.919535,61.071617 39.687724,53.585004 44.591819,48.680908 53.727817,39.54491 68.334761,50.39213 62.914788,62.287676 60.227059,68.186596 50.435385,69.920122 45.11073,65.439719 z m 27.770745,1.113677 C 70.049498,64.953296 67,59.506959 67,56.049211 67,50.043245 72.728413,45 79.55034,45 c 2.81726,0 4.425118,0.775458 7.04966,3.4 2.877768,2.877768 3.4,4.104126 3.4,7.984223 0,6.410178 -3.783666,10.645698 -10.032441,11.230539 -2.807192,0.262733 -5.440733,-0.131723 -7.086084,-1.061366 z m 3.849493,-23.209333 c 0.677033,-0.273923 2.027033,-0.290597 3,-0.03705 0.972968,0.25354 0.419032,0.477659 -1.230968,0.498038 -1.65,0.02038 -2.446064,-0.187065 -1.769032,-0.460988 z M 55.45915,41.528688 C 47.990647,39.82768 41.786528,36.061961 39.751554,31.994637 37.970592,28.435009 37.226678,15.572428 38.75,14.677344 c 1.199141,-0.7046 11.014996,2.122569 13.874375,3.996107 2.961666,1.940558 5.584017,7.430196 7.377398,15.443867 1.843318,8.236815 1.505013,8.788766 -4.542623,7.41137 z M 68.347825,38.25 C 70.360719,25.741174 74.301214,19.146012 81.278438,16.608184 88.889025,13.839981 90.29689,14.038269 91.160511,18 c 0.68787,3.155498 0.602165,4.690585 -0.642049,11.5 -0.200992,1.1 -0.39987,2.319289 -0.441951,2.709531 C 89.726684,35.453676 76.82636,42 70.783208,42 67.831066,42 67.761597,41.893032 68.347825,38.25 z M 61.91377,28.273199 C 60.52998,24.633555 60.948623,14.329196 62.652005,10.102485 64.532512,5.436265 66.69421,4.0690019 72.25,4.0318034 c 4.525481,-0.0303 4.74948,0.098181 4.738994,2.7181966 -0.0061,1.5125 -0.289932,4.4375 -0.630842,6.5 -0.540946,3.272711 -0.96943,3.75 -3.36655,3.75 -3.562823,0 -4.863227,1.680227 -5.068069,6.548355 C 67.673655,29.486771 67.061253,31 64.907861,31 63.696726,31 62.555255,29.960431 61.91377,28.273199 z"
       id="path3001"
       inkscape:connector-curvature="0" />
    <path
       style="fill:#650198"
       d="M 62.332914,152.82017 C 57.596623,151.57237 54,146.74932 54,141.64578 c 0,-4.83092 1.887997,-8.01938 6.011044,-10.15149 5.886868,-3.04422 12.664815,-0.80448 15.472798,5.1129 1.898649,4.00111 1.916404,6.71814 0.06727,10.29397 -2.569253,4.96839 -7.850313,7.33321 -13.218198,5.91901 z M 39.912452,134.71998 c -6.177137,-4.16277 -7.522191,-10.0321 -3.625895,-15.8221 4.192069,-6.22952 12.382316,-7.07516 17.63652,-1.82096 5.254204,5.25421 4.408565,13.44445 -1.82096,17.63652 -4.302744,2.89547 -7.89992,2.8974 -12.189665,0.007 z M 82.5,136.28618 c -7.228726,-1.87839 -10.975954,-9.60627 -7.804337,-16.09483 2.560474,-5.23827 8.12274,-7.86194 13.348365,-6.2963 6.991229,2.09462 10.666158,9.89714 7.523663,15.97405 -2.525458,4.8837 -8.215565,7.67791 -13.067691,6.41708 z m -20,-18.11432 c -6.372092,-1.29157 -10.56481,-8.41542 -8.548531,-14.52481 1.813218,-5.494104 5.296965,-8.031665 11.026446,-8.031665 5.606911,0 7.931247,1.566073 10.566471,7.119395 3.828023,8.06696 -3.95632,17.27916 -13.044386,15.43708 z M 30.64255,112.94714 C 24.026975,111.02171 20.681056,104.09244 23.318685,97.779706 25.235129,93.193008 28.969627,90.727273 34,90.727273 c 5.043454,0 8.763028,2.466192 10.709166,7.100508 3.634034,8.653689 -4.871343,17.795599 -14.066616,15.119359 z m 60.821886,-0.65033 c -3.94499,-0.73589 -7.619143,-4.67426 -8.413563,-9.01861 -1.668688,-9.125344 6.896226,-16.441284 15.17723,-12.964016 4.104737,1.723617 7.764417,6.76027 7.764417,10.685816 0,3.0148 -3.19554,8.5183 -5.68901,9.79785 -2.50674,1.28635 -6.420631,1.95009 -8.839074,1.49896 z M 74.619302,92.891659 C 67.86181,91.041774 64.403054,83.988833 67.405788,78.182186 c 2.202696,-4.259545 5.350926,-6.185986 10.066718,-6.15995 4.840062,0.02672 7.951208,2.23127 9.8473,6.977764 3.284036,8.220935 -4.062394,16.256371 -12.700504,13.891659 z M 46.253763,90.887334 c -1.953852,-1.251296 -3.580512,-3.334708 -4.085874,-5.233153 -3.477185,-13.062408 14.18822,-19.535156 20.420943,-7.482399 1.358638,2.627315 1.436382,3.800696 0.46634,7.038406 -2.123617,7.088002 -10.289814,9.847336 -16.801409,5.677146 z M 24.415186,83.578588 c -9.899778,-4.310366 -9.785495,-17.018956 0.190528,-21.187205 13.201138,-5.515788 21.970558,14.836496 9.037208,20.973772 -4.107082,1.948938 -5.184501,1.973858 -9.227736,0.213433 z M 94.755662,83.245209 C 84.966599,77.175696 89.561084,62 101.18771,62 c 4.58085,0 10.34663,4.603388 11.32073,9.03845 2.13763,9.732523 -9.18585,17.518512 -17.752778,12.206759 z M 45.11073,65.439719 C 39.919535,61.071617 39.687724,53.585004 44.591819,48.680908 53.727817,39.54491 68.334761,50.39213 62.914788,62.287676 60.227059,68.186596 50.435385,69.920122 45.11073,65.439719 z m 27.770745,1.113677 C 70.049498,64.953296 67,59.506959 67,56.049211 67,50.043245 72.728413,45 79.55034,45 c 2.81726,0 4.425118,0.775458 7.04966,3.4 2.877768,2.877768 3.4,4.104126 3.4,7.984223 0,6.410178 -3.783666,10.645698 -10.032441,11.230539 -2.807192,0.262733 -5.440733,-0.131723 -7.086084,-1.061366 z M 55.031314,41.436119 C 52.023536,40.749589 49.397602,39.692805 49.195903,39.08771 48.994205,38.482616 48.417614,38.2419 47.91459,38.552786 47.411565,38.863673 47,38.614919 47,38 47,37.385081 46.582568,37.139953 46.072374,37.45527 44.604872,38.362236 40.048487,33.799658 39.126546,30.5 c -0.461019,-1.65 -0.79059,-5.7 -0.732381,-9 l 0.105835,-6 4.073709,0.171829 c 5.146382,0.217075 10.293687,3.051238 13.123579,7.225988 2.080182,3.068752 5.882513,17.04317 5.146269,18.91369 -0.188956,0.480067 -2.804466,0.311143 -5.812243,-0.375388 z m 14.270692,-5.073328 c 0.323794,-3.13727 1.827118,-8.126319 3.389902,-11.25 3.050592,-6.097497 7.165985,-8.877493 14.627504,-9.881048 l 3.819411,-0.513701 -0.20311,7.890979 C 90.719533,31.007794 89.957829,33.387906 86.603179,36.146974 83.821096,38.435127 74.482874,42 71.271113,42 68.769425,42 68.731423,41.891206 69.302006,36.362791 z M 62.234107,29.25 c -0.386718,-0.9625 -0.692646,-5.145675 -0.679841,-9.295944 0.01762,-5.709935 0.510462,-8.380114 2.025579,-10.9743522 2.22025,-3.8015931 6.632386,-5.6452212 10.929172,-4.5667967 2.402067,0.6028805 2.59458,1.002993 2.105179,4.3753272 C 76.317933,10.829705 76.058541,13.5125 76.037768,14.75 76.007975,16.524896 75.419318,17.003233 73.25,17.015313 68.690332,17.040702 67.673221,18.36957 67.199367,24.920536 66.825747,30.085776 66.472215,31 64.848424,31 63.797268,31 62.620825,30.2125 62.234107,29.25 z"
       id="path2999"
       inkscape:connector-curvature="0" />
    <path
       style="fill:#057a06"
       d="m 55.250674,40.403017 c -6.433937,-1.668971 -12.126319,-4.499824 -14.642057,-7.281575 -1.487921,-1.645252 -1.914553,-3.747783 -2,-9.856409 L 38.5,15.5 l 4.073709,0.171829 c 5.146382,0.217075 10.293687,3.051238 13.123579,7.225988 1.956311,2.886014 6.085293,17.705738 5.165156,18.538755 -0.199344,0.18047 -2.724641,-0.284629 -5.61177,-1.033555 z M 69.305257,36.331286 C 69.62579,33.225626 71.136176,28.222378 72.691908,25.112791 75.734337,19.031608 79.858136,16.23529 87.25,15.241053 l 3.75,-0.504391 0,6.73054 c 0,11.499511 -2.892576,14.927399 -15.682748,18.585059 l -6.590555,1.884729 0.57856,-5.605704 z M 61.758309,27.51601 C 60.720204,22.085514 61.727974,12.150545 63.650913,8.8580187 65.798959,5.1800565 70.271077,3.349252 74.509017,4.4129071 c 2.402067,0.6028805 2.59458,1.002993 2.105179,4.3753272 -0.296263,2.0414707 -0.555655,4.6161157 -0.576428,5.7214317 -0.02987,1.589332 -0.708517,2.007645 -3.244693,2 C 68.88639,16.497891 67.036574,19.455997 67.014742,25.75 67.001536,29.55711 66.751625,30 64.616577,30 62.872464,30 62.105786,29.333715 61.758309,27.51601 z"
       id="path2997"
       inkscape:connector-curvature="0" />
  </g>
</svg>
